<svg width="166" height="88" viewBox="0 0 166 88" fill="none" xmlns="http://www.w3.org/2000/svg">
<path d="M137.534 75.1781H12.8234C11.3886 75.1781 10.2253 74.0148 10.2253 72.58V64.7857H137.534V75.1781Z" fill="#9E070B"/>
<path d="M137.534 85.5678C143.273 85.5678 147.925 80.9156 147.925 75.1768C147.925 69.4379 143.273 64.7857 137.534 64.7857C131.796 64.7857 127.143 69.4379 127.143 75.1768C127.143 80.9156 131.796 85.5678 137.534 85.5678Z" fill="white"/>
<path d="M51.7966 85.5678C57.5354 85.5678 62.1877 80.9156 62.1877 75.1768C62.1877 69.4379 57.5354 64.7857 51.7966 64.7857C46.0578 64.7857 41.4055 69.4379 41.4055 75.1768C41.4055 80.9156 46.0578 85.5678 51.7966 85.5678Z" fill="white"/>
<path d="M31.0112 85.5678C36.75 85.5678 41.4023 80.9156 41.4023 75.1768C41.4023 69.4379 36.75 64.7857 31.0112 64.7857C25.2724 64.7857 20.6201 69.4379 20.6201 75.1768C20.6201 80.9156 25.2724 85.5678 31.0112 85.5678Z" fill="white"/>
<path d="M31.0106 71H30.9681C28.7649 71 27 72.7909 27 75C27 77.2091 28.8075 79 31.0106 79C33.2138 79 35 77.2091 35 75C35 72.7909 33.2138 71 31.0106 71Z" fill="#111111"/>
<path d="M52.0106 71H51.9681C49.7649 71 48 72.7909 48 75C48 77.2091 49.8075 79 52.0106 79C54.2138 79 56 77.2091 56 75C56 72.7909 54.2138 71 52.0106 71Z" fill="#111111"/>
<path d="M137.509 72H137.472C135.544 72 134 73.5671 134 75.5C134 77.4329 135.582 79 137.509 79C139.437 79 141 77.4329 141 75.5C141 73.5671 139.437 72 137.509 72Z" fill="#111111"/>
<path d="M163.712 43.3573L160.444 40.0889L153.859 20.3355C154.842 20.0234 155.554 19.1045 155.554 18.0191C155.554 16.6766 154.465 15.5882 153.123 15.5882H129.572V5.02894C129.572 2.25583 127.317 0 124.543 0H5.02894C2.25583 0.000324113 0 2.25647 0 5.02894V62.1876C0 64.9607 2.25583 67.2166 5.02894 67.2166H7.79428V72.5787C7.79428 75.3518 10.0501 77.6076 12.8232 77.6076H18.421C19.5606 83.5195 24.7707 88 31.0102 88C35.2826 88 39.0712 85.8978 41.4025 82.6755C43.7342 85.8978 47.5228 88 51.7952 88C58.0347 88 63.2452 83.5195 64.3845 77.6076H124.944C126.084 83.5195 131.294 88 137.534 88C144.604 88 150.357 82.2473 150.357 75.1768C150.357 75.121 150.353 75.0663 150.353 75.0108H160.917C163.69 75.0108 165.946 72.755 165.946 69.9819V48.7499C165.946 46.7128 165.153 44.7976 163.712 43.3573ZM18.421 72.7463H12.8232C12.7308 72.7463 12.656 72.6714 12.656 72.579V67.2169H20.9679C19.7103 68.8005 18.818 70.6855 18.421 72.7463ZM31.0102 83.1393C26.6201 83.1393 23.0487 79.5675 23.0487 75.1777C23.0487 70.8045 26.5935 67.2444 30.9606 67.2172H31.0604C35.4275 67.2441 38.9724 70.8042 38.9724 75.1777C38.972 79.5672 35.4003 83.1393 31.0102 83.1393ZM51.7956 83.1393C47.4055 83.1393 43.8337 79.5675 43.8337 75.1777C43.8337 70.8045 47.3785 67.2444 51.7457 67.2172H51.8455C56.2126 67.2441 59.7574 70.8042 59.7574 75.1777C59.7571 79.5672 56.1857 83.1393 51.7956 83.1393ZM124.945 72.7463H64.3848C63.9877 70.6855 63.0954 68.8002 61.8376 67.2166H108.954C110.297 67.2166 111.385 66.1282 111.385 64.7857C111.385 63.4432 110.297 62.3549 108.954 62.3549H5.02894C4.93657 62.3549 4.8617 62.28 4.8617 62.1876V5.02894C4.8617 4.93657 4.93657 4.8617 5.02894 4.8617H124.543C124.635 4.8617 124.71 4.93657 124.71 5.02894V62.3552H119.348C118.005 62.3552 116.917 63.4436 116.917 64.786C116.917 66.1285 118.005 67.2169 119.348 67.2169H127.492C126.234 68.8005 125.342 70.6855 124.945 72.7463ZM155.812 41.5691H140.132C140.04 41.5691 139.965 41.4943 139.965 41.4019V30.842H152.237L155.812 41.5691ZM137.534 83.1393C133.144 83.1393 129.572 79.5675 129.572 75.1777C129.572 70.8045 133.117 67.2444 137.484 67.2172H137.534C137.54 67.2172 137.545 67.2166 137.551 67.2162C141.933 67.2253 145.496 70.7931 145.496 75.1774C145.495 79.5672 141.924 83.1393 137.534 83.1393ZM161.084 54.5609H158.319C156.976 54.5609 155.888 55.6493 155.888 56.9918C155.888 58.3342 156.976 59.4226 158.319 59.4226H161.084V69.9825C161.084 70.0749 161.009 70.1498 160.917 70.1498H149.329C147.37 65.571 142.821 62.3542 137.534 62.3542C137.517 62.3542 137.501 62.3555 137.484 62.3555H129.572V20.6178V20.6165C129.572 20.5241 129.647 20.4493 129.74 20.4493H148.773L150.616 25.9799H137.534C136.191 25.9799 135.103 27.0683 135.103 28.4108V41.4016C135.103 44.1747 137.359 46.4305 140.132 46.4305H159.91L160.274 46.7948C160.796 47.3173 161.084 48.0115 161.084 48.7502V54.5609Z" fill="#111111"/>
<path d="M12.8232 59.093H116.748C118.091 59.093 119.179 58.0046 119.179 56.6621C119.179 55.3196 118.091 54.2313 116.748 54.2313H12.8232C11.4807 54.2313 10.3923 55.3196 10.3923 56.6621C10.3923 58.0046 11.4807 59.093 12.8232 59.093Z" fill="#111111"/>
<path d="M75.6697 54.9986H71.5642V38.5769H73.2064C73.6991 38.5769 74.0275 38.2485 74.0275 37.7559V21.334C74.0275 20.8414 73.6991 20.5131 73.2064 20.5131H72.6317L70.661 16.8182C70.4968 16.5718 70.2505 16.4075 69.9221 16.4075H69.101V14.7653C69.101 14.2727 68.7725 13.9442 68.2799 13.9442H67.8694L64.9955 10.3315V8.1966C64.9955 7.70395 64.6671 7.37555 64.1745 7.37555C63.6818 7.37555 63.3534 7.70395 63.3534 8.1966V10.3315L60.4796 13.9442H60.069C59.5764 13.9442 59.2479 14.2727 59.2479 14.7653V16.4075H58.4268C58.0984 16.4075 57.8521 16.5718 57.6879 16.8182L55.7173 20.5131H55.1425C54.6498 20.5131 54.3214 20.8414 54.3214 21.334V37.7559C54.3214 38.2485 54.6498 38.5769 55.1425 38.5769H56.7847V54.9987H52.6792C52.1866 54.9987 51.8582 55.327 51.8582 55.8197C51.8582 56.3123 52.1866 56.6408 52.6792 56.6408H55.1425H73.2064H75.6697C76.1623 56.6408 76.4908 56.3123 76.4908 55.8197C76.4908 55.327 76.1623 54.9986 75.6697 54.9986ZM61.7112 52.5353C61.7112 53.028 61.3828 53.3563 60.8901 53.3563C60.3975 53.3563 60.069 53.028 60.069 52.5353V41.0401C60.069 40.5475 60.3975 40.2191 60.8901 40.2191C61.3828 40.2191 61.7112 40.5475 61.7112 41.0401V52.5353ZM64.9955 52.5353C64.9955 53.028 64.6671 53.3563 64.1745 53.3563C63.6818 53.3563 63.3534 53.028 63.3534 52.5353V41.0401C63.3534 40.5475 63.6818 40.2191 64.1745 40.2191C64.6671 40.2191 64.9955 40.5475 64.9955 41.0401V52.5353ZM68.2799 52.5353C68.2799 53.028 67.9515 53.3563 67.4588 53.3563C66.9662 53.3563 66.6377 53.028 66.6377 52.5353V41.0401C66.6377 40.5475 66.9662 40.2191 67.4588 40.2191C67.9515 40.2191 68.2799 40.5475 68.2799 41.0401V52.5353ZM64.1745 35.2925C60.9722 35.2925 58.4268 32.7471 58.4268 29.5449C58.4268 26.3427 60.9722 23.7973 64.1745 23.7973C67.3767 23.7973 69.9221 26.3427 69.9221 29.5449C69.9221 32.7471 67.3767 35.2925 64.1745 35.2925Z" fill="#111111"/>
<path d="M65.8168 28.7239H64.9957V27.0818C64.9957 26.5891 64.6673 26.2607 64.1746 26.2607C63.682 26.2607 63.3535 26.5891 63.3535 27.0818V29.545C63.3535 30.0377 63.682 30.366 64.1746 30.366H65.8168C66.3094 30.366 66.6379 30.0377 66.6379 29.545C66.6379 29.0524 66.3094 28.7239 65.8168 28.7239Z" fill="#111111"/>
</svg>
