<svg width="41" height="41" viewBox="0 0 41 41" fill="none" xmlns="http://www.w3.org/2000/svg">
<path d="M40.806 12.03C40.7102 9.85586 40.3586 8.36116 39.8549 7.06599C39.3354 5.6912 38.536 4.46035 37.4888 3.43714C36.4656 2.398 35.2266 1.59055 33.8677 1.0791C32.5651 0.575458 31.0782 0.223876 28.9041 0.128018C26.7137 0.0240425 26.0183 0 20.463 0C14.9076 0 14.2122 0.0240425 12.03 0.1199C9.85586 0.215758 8.36116 0.567652 7.0663 1.07098C5.6912 1.59055 4.46035 2.38989 3.43714 3.43714C2.398 4.46035 1.59086 5.69932 1.0791 7.05819C0.575458 8.36116 0.223876 9.84774 0.128018 12.0219C0.0240425 14.2122 0 14.9076 0 20.463C0 26.0183 0.0240425 26.7137 0.1199 28.8959C0.215758 31.0701 0.567652 32.5648 1.0713 33.8599C1.59086 35.2347 2.398 36.4656 3.43714 37.4888C4.46035 38.5279 5.69932 39.3354 7.05819 39.8468C8.36116 40.3505 9.84774 40.702 12.0222 40.7979C14.2041 40.8941 14.8998 40.9178 20.4552 40.9178C26.0105 40.9178 26.7059 40.8941 28.8881 40.7979C31.0623 40.702 32.557 40.3505 33.8518 39.8468C36.6017 38.7836 38.7758 36.6095 39.839 33.8599C40.3423 32.557 40.6942 31.0701 40.7901 28.8959C40.886 26.7137 40.91 26.0183 40.91 20.463C40.91 14.9076 40.9019 14.2122 40.806 12.03ZM37.1213 28.7361C37.0332 30.7344 36.6976 31.8135 36.4178 32.5329C35.7302 34.3155 34.3155 35.7303 32.5329 36.4178C31.8135 36.6976 30.7266 37.0332 28.7361 37.121C26.5779 37.2171 25.9306 37.2409 20.4711 37.2409C15.0116 37.2409 14.3562 37.2171 12.2058 37.121C10.2074 37.0332 9.12834 36.6976 8.40894 36.4178C7.52186 36.09 6.71441 35.5704 6.05902 34.8909C5.37958 34.2274 4.86002 33.4281 4.53216 32.541C4.2524 31.8216 3.91674 30.7344 3.829 28.7442C3.73283 26.586 3.7091 25.9384 3.7091 20.4789C3.7091 15.0194 3.73283 14.364 3.829 12.2139C3.91674 10.2156 4.2524 9.13646 4.53216 8.41706C4.86002 7.52967 5.37958 6.72253 6.06714 6.06682C6.73033 5.38739 7.52967 4.86782 8.41705 4.54028C9.13645 4.26052 10.2237 3.92486 12.2139 3.83681C14.3721 3.74095 15.0197 3.71691 20.4789 3.71691C25.9465 3.71691 26.5938 3.74095 28.7442 3.83681C30.7425 3.92486 31.8216 4.26052 32.541 4.54028C33.4281 4.86782 34.2356 5.38739 34.8909 6.06682C35.5704 6.73033 36.09 7.52967 36.4178 8.41706C36.6976 9.13646 37.0332 10.2234 37.1213 12.2139C37.2171 14.3721 37.2412 15.0194 37.2412 20.4789C37.2412 25.9384 37.2171 26.5779 37.1213 28.7361Z" fill="#9E070B"/>
<path d="M20.4629 9.95166C14.6599 9.95166 9.95166 14.6596 9.95166 20.4629C9.95166 26.2662 14.6599 30.9742 20.4629 30.9742C26.2662 30.9742 30.9742 26.2662 30.9742 20.4629C30.9742 14.6596 26.2662 9.95166 20.4629 9.95166ZM20.4629 27.2813C16.6982 27.2813 13.6445 24.2279 13.6445 20.4629C13.6445 16.6979 16.6982 13.6445 20.4629 13.6445C24.2279 13.6445 27.2813 16.6979 27.2813 20.4629C27.2813 24.2279 24.2279 27.2813 20.4629 27.2813Z" fill="#9E070B"/>
<path d="M33.8441 9.53617C33.8441 10.8913 32.7454 11.9901 31.3899 11.9901C30.0348 11.9901 28.936 10.8913 28.936 9.53617C28.936 8.18074 30.0348 7.08228 31.3899 7.08228C32.7454 7.08228 33.8441 8.18074 33.8441 9.53617Z" fill="#9E070B"/>
</svg>
