<svg width="32" height="33" viewBox="0 0 32 33" fill="none" xmlns="http://www.w3.org/2000/svg">
<path d="M31.1761 24.5992L27.1981 20.6211C26.1013 19.5244 24.3167 19.5244 23.22 20.6211L21.4118 22.4293C20.5809 23.2602 19.2289 23.26 18.3983 22.4296L10.5608 14.5854C9.72799 13.7526 9.72787 12.4047 10.5608 11.5717C10.8521 11.2805 11.6884 10.4442 12.369 9.76354C13.4609 8.67166 13.4762 6.89259 12.3679 5.78446L8.39093 1.81995C7.29417 0.723257 5.5096 0.723257 4.41579 1.81707C3.59729 2.62845 3.33328 2.8902 2.96628 3.25402C-0.98873 7.20897 -0.98873 13.6442 2.9661 17.599L15.3844 30.0238C19.3487 33.9881 25.7649 33.9884 29.7295 30.0238L31.1761 28.5772C32.2729 27.4805 32.2729 25.696 31.1761 24.5992ZM5.73892 3.14595C6.10448 2.78039 6.69923 2.78033 7.06598 3.14695L11.043 7.11147C11.4094 7.4779 11.4094 8.07097 11.043 8.43747L10.3799 9.10047L5.07929 3.79983L5.73892 3.14595ZM16.7106 28.698L4.29229 16.2731C1.2324 13.2132 1.06421 8.40847 3.77504 5.14765L9.0603 10.4329C7.67155 12.0072 7.72942 14.4062 9.23449 15.9112L17.0718 23.7551L17.072 23.7553C18.5755 25.2588 20.9743 25.3205 22.5505 23.9298L27.8359 29.2152C24.5855 31.9214 19.7916 31.7789 16.7106 28.698ZM29.8502 27.2512L29.1871 27.9143L23.883 22.6101L24.546 21.9471C24.9116 21.5816 25.5064 21.5815 25.872 21.9471L29.8501 25.9252C30.2157 26.2908 30.2157 26.8857 29.8502 27.2512Z" fill="#9E070B"/>
</svg>
