<svg width="16" height="16" viewBox="0 0 16 16" fill="none" xmlns="http://www.w3.org/2000/svg">
<path d="M8.59766 7.39042L8.59766 5.0204C8.59766 4.68226 8.32353 4.34691 7.98539 4.34691C7.64728 4.34688 7.37315 4.68223 7.37315 5.02037L7.37315 8.00266C7.37315 8.3408 7.64725 8.6149 7.98539 8.6149L11.4488 8.6149C11.7868 8.6149 12.061 8.3408 12.061 8.00266C12.061 7.66452 11.7869 7.39042 11.4488 7.39042L8.59766 7.39042Z" fill="white"/>
<path d="M7.95918 0C3.57518 0 0 3.56722 0 7.95918C0 12.3654 3.58624 16 7.95918 16C12.3467 16 16 12.3613 16 7.95918C16 3.58878 12.3681 0 7.95918 0ZM13.1668 12.301L12.8029 11.9371C12.5639 11.698 12.1762 11.698 11.9371 11.9371C11.698 12.1762 11.698 12.5638 11.9371 12.8029L12.3009 13.1668C11.2621 14.0397 9.97012 14.6149 8.57139 14.7462V14.1633C8.57139 13.8251 8.29727 13.551 7.95914 13.551C7.62102 13.551 7.3469 13.8251 7.3469 14.1633V14.7471C5.95359 14.6193 4.68143 14.0607 3.66212 13.2037L4.06286 12.803C4.30196 12.5639 4.30196 12.1762 4.06286 11.9371C3.8238 11.698 3.43612 11.698 3.19702 11.9371L2.79947 12.3347C1.93894 11.2968 1.37792 9.99661 1.25196 8.57143H1.83673C2.17486 8.57143 2.44898 8.29731 2.44898 7.95918C2.44898 7.62106 2.17486 7.34694 1.83673 7.34694H1.25261C1.37922 5.94898 1.93453 4.67298 2.78612 3.65196L3.19706 4.0629C3.43612 4.30196 3.8238 4.302 4.0629 4.0629C4.302 3.8238 4.302 3.43616 4.0629 3.19706L3.65196 2.78612C4.67298 1.93453 5.94898 1.37922 7.34694 1.25261V1.83673C7.34694 2.17486 7.62106 2.44898 7.95918 2.44898C8.29731 2.44898 8.57143 2.17486 8.57143 1.83673V1.25196C9.99661 1.37792 11.2968 1.93894 12.3347 2.79951L11.9371 3.19702C11.5502 3.58392 11.8295 4.2422 12.37 4.2422C12.5267 4.2422 12.6834 4.18245 12.8029 4.0629L13.2037 3.66216C14.0607 4.68147 14.6193 5.95367 14.747 7.34694H14.1633C13.8251 7.34694 13.551 7.62106 13.551 7.95918C13.551 8.29731 13.8251 8.57143 14.1633 8.57143H14.7463C14.6149 9.97016 14.0397 11.2622 13.1668 12.301Z" fill="white"/>
</svg>
