<svg width="22" height="22" viewBox="0 0 22 22" fill="none" xmlns="http://www.w3.org/2000/svg">
<path d="M21.5765 6.24159C21.5275 5.1301 21.3477 4.36597 21.0903 3.70383C20.8246 3.00099 20.416 2.37174 19.8806 1.84864C19.3575 1.3174 18.7241 0.904604 18.0294 0.643134C17.3634 0.385655 16.6033 0.205914 15.4918 0.156908C14.372 0.103752 14.0165 0.0914612 11.1764 0.0914612C8.33634 0.0914612 7.98085 0.103752 6.86522 0.152758C5.75373 0.201764 4.98959 0.381664 4.32762 0.638984C3.62462 0.904604 2.99537 1.31325 2.47227 1.84864C1.94103 2.37174 1.52839 3.00514 1.26676 3.69984C1.00928 4.36597 0.829541 5.12595 0.780535 6.23744C0.727379 7.35723 0.715088 7.71272 0.715088 10.5528C0.715088 13.3929 0.727379 13.7484 0.776385 14.864C0.82539 15.9755 1.00529 16.7397 1.26277 17.4018C1.52839 18.1046 1.94103 18.7339 2.47227 19.257C2.99537 19.7882 3.62877 20.201 4.32347 20.4625C4.98959 20.72 5.74958 20.8997 6.86122 20.9487C7.9767 20.9979 8.33235 21.01 11.1724 21.01C14.0125 21.01 14.368 20.9979 15.4837 20.9487C16.5951 20.8997 17.3593 20.72 18.0213 20.4625C19.4271 19.919 20.5386 18.8075 21.0821 17.4018C21.3394 16.7357 21.5193 15.9755 21.5683 14.864C21.6173 13.7484 21.6296 13.3929 21.6296 10.5528C21.6296 7.71272 21.6255 7.35723 21.5765 6.24159ZM19.6927 14.7823C19.6477 15.8039 19.4761 16.3556 19.3331 16.7234C18.9816 17.6347 18.2583 18.358 17.347 18.7095C16.9792 18.8525 16.4235 19.0241 15.4059 19.0689C14.3026 19.1181 13.9717 19.1302 11.1806 19.1302C8.3895 19.1302 8.05444 19.1181 6.95509 19.0689C5.93347 19.0241 5.3818 18.8525 5.01402 18.7095C4.56051 18.5418 4.14772 18.2762 3.81266 17.9289C3.46531 17.5897 3.19969 17.181 3.03208 16.7275C2.88905 16.3597 2.71746 15.8039 2.6726 14.7864C2.62343 13.6831 2.6113 13.352 2.6113 10.5609C2.6113 7.76986 2.62343 7.4348 2.6726 6.33561C2.71746 5.31399 2.88905 4.76232 3.03208 4.39454C3.19969 3.94088 3.46531 3.52824 3.81681 3.19302C4.15586 2.84567 4.5645 2.58005 5.01817 2.4126C5.38595 2.26958 5.94177 2.09798 6.95924 2.05296C8.06258 2.00396 8.39365 1.99167 11.1846 1.99167C13.9798 1.99167 14.3107 2.00396 15.4101 2.05296C16.4317 2.09798 16.9834 2.26958 17.3511 2.4126C17.8046 2.58005 18.2174 2.84567 18.5525 3.19302C18.8999 3.53223 19.1655 3.94088 19.3331 4.39454C19.4761 4.76232 19.6477 5.31798 19.6927 6.33561C19.7417 7.43896 19.754 7.76986 19.754 10.5609C19.754 13.352 19.7417 13.679 19.6927 14.7823Z" fill="white"/>
<path d="M11.1764 5.17908C8.20976 5.17908 5.80273 7.58594 5.80273 10.5528C5.80273 13.5196 8.20976 15.9265 11.1764 15.9265C14.1433 15.9265 16.5501 13.5196 16.5501 10.5528C16.5501 7.58594 14.1433 5.17908 11.1764 5.17908ZM11.1764 14.0386C9.25181 14.0386 7.69065 12.4776 7.69065 10.5528C7.69065 8.62799 9.25181 7.06699 11.1764 7.06699C13.1012 7.06699 14.6622 8.62799 14.6622 10.5528C14.6622 12.4776 13.1012 14.0386 11.1764 14.0386Z" fill="white"/>
<path d="M18.0172 4.96661C18.0172 5.65939 17.4555 6.22112 16.7626 6.22112C16.0698 6.22112 15.5081 5.65939 15.5081 4.96661C15.5081 4.27367 16.0698 3.7121 16.7626 3.7121C17.4555 3.7121 18.0172 4.27367 18.0172 4.96661Z" fill="white"/>
</svg>
