<svg width="22" height="20" viewBox="0 0 22 20" fill="none" xmlns="http://www.w3.org/2000/svg">
<path d="M3.39399 0C1.86037 0 0.857666 1.00705 0.857666 2.33068C0.857666 3.62507 1.8305 4.66084 3.33514 4.66084H3.36425C4.92786 4.66084 5.90095 3.62507 5.90095 2.33068C5.87172 1.00705 4.92786 0 3.39399 0Z" fill="white"/>
<path d="M1.12256 6.50244H5.60596V19.9909H1.12256V6.50244Z" fill="white"/>
<path d="M16.6107 6.18585C14.192 6.18585 12.5702 8.45857 12.5702 8.45857V6.50243H8.08667V19.9909H12.5699V12.4584C12.5699 12.0552 12.5992 11.6526 12.7176 11.3642C13.0417 10.559 13.7793 9.72476 15.0179 9.72476C16.6403 9.72476 17.2891 10.9617 17.2891 12.775V19.9909H21.7721V12.2569C21.7721 8.11378 19.5602 6.18585 16.6107 6.18585Z" fill="white"/>
</svg>
