<svg width="32" height="25" viewBox="0 0 32 25" fill="none" xmlns="http://www.w3.org/2000/svg">
<path fill-rule="evenodd" clip-rule="evenodd" d="M2 0.230713C0.895431 0.230713 0 1.12615 0 2.23071V22.8461C0 23.9507 0.895431 24.8461 2 24.8461H30C31.1046 24.8461 32 23.9507 32 22.8461V2.23071C32 1.12614 31.1046 0.230713 30 0.230713H2ZM16.8743 13.5994L27.68 2.69225H4.32L15.1257 13.5994C15.6076 14.0859 16.3925 14.0859 16.8743 13.5994ZM2.46154 4.31391V20.644L10.5885 12.5172L2.46154 4.31391ZM12.3209 14.2658L4.20209 22.3846H27.7979L19.6792 14.2658L18.6231 15.3318C17.1772 16.7913 14.8231 16.7915 13.377 15.3318L12.3209 14.2658ZM21.4115 12.5172L29.5385 20.6441V4.31391L21.4115 12.5172Z" fill="#9E070B"/>
</svg>
