<svg width="110" height="88" viewBox="0 0 110 88" fill="none" xmlns="http://www.w3.org/2000/svg">
<path d="M75.6799 70.4001C72.7689 70.4001 70.3999 72.769 70.3999 75.6801C70.3999 78.5911 72.7689 80.9601 75.6799 80.9601C78.5909 80.9601 80.9599 78.5911 80.9599 75.6801C80.9599 72.769 78.5909 70.4001 75.6799 70.4001ZM75.6799 77.4401C74.7101 77.4401 73.9199 76.6516 73.9199 75.6801C73.9199 74.7085 74.7101 73.9201 75.6799 73.9201C76.6497 73.9201 77.4399 74.7085 77.4399 75.6801C77.4399 76.6516 76.6497 77.4401 75.6799 77.4401Z" fill="black"/>
<path d="M22.8801 70.4001C19.9691 70.4001 17.6001 72.769 17.6001 75.6801C17.6001 78.5911 19.9691 80.9601 22.8801 80.9601C25.7911 80.9601 28.1601 78.5911 28.1601 75.6801C28.1601 72.769 25.7911 70.4001 22.8801 70.4001ZM22.8801 77.4401C21.9103 77.4401 21.1201 76.6516 21.1201 75.6801C21.1201 74.7085 21.9103 73.9201 22.8801 73.9201C23.8499 73.9201 24.6401 74.7085 24.6401 75.6801C24.6401 76.6516 23.8499 77.4401 22.8801 77.4401Z" fill="black"/>
<path d="M96.8 80.9601C99.7111 80.9601 102.08 78.5911 102.08 75.6801C102.08 72.769 99.7111 70.4001 96.8 70.4001C93.889 70.4001 91.52 72.769 91.52 75.6801C91.52 78.5911 93.889 80.9601 96.8 80.9601ZM96.8 73.9201C97.7698 73.9201 98.56 74.7085 98.56 75.6801C98.56 76.6516 97.7698 77.4401 96.8 77.4401C95.8303 77.4401 95.04 76.6516 95.04 75.6801C95.04 74.7085 95.8303 73.9201 96.8 73.9201Z" fill="black"/>
<path d="M109.12 75.68C109.12 68.8882 103.594 63.36 96.8 63.36C92.3155 63.36 88.396 65.7765 86.24 69.3669C84.084 65.7765 80.1645 63.36 75.68 63.36H59.84V31.68H52.8V28.16H59.84V14.08H52.8V10.56H42.24V5.28C42.24 4.30848 43.0302 3.52 44 3.52H45.76V0H44C41.089 0 38.72 2.36896 38.72 5.28V10.56C19.3107 10.56 3.52 26.3507 3.52 45.76V56.6438C1.47664 57.3725 0 59.3085 0 61.6V72.16C0 75.071 2.36896 77.44 5.28 77.44H10.7008C11.095 80.1785 12.3834 82.6302 14.2754 84.48H0V88H49.28V84.48H31.4846C32.5178 83.4697 33.3643 82.2782 33.9926 80.96H64.5638C65.1922 82.2782 66.0405 83.4697 67.0719 84.48H63.36V88H109.12V84.48H105.405C107.694 82.2413 109.12 79.1261 109.12 75.68ZM96.8 66.88C101.652 66.88 105.6 70.8277 105.6 75.68C105.6 80.5323 101.652 84.48 96.8 84.48C91.9477 84.48 88 80.5323 88 75.68C88 70.8277 91.9477 66.88 96.8 66.88ZM7.04 56.32V49.28H24.64V44C24.64 39.1477 20.6923 35.2 15.84 35.2H8.888C9.31744 33.9909 9.81552 32.817 10.3822 31.68H38.72V38.72H35.2V59.8734C32.2538 57.6541 28.6053 56.32 24.64 56.32H7.04ZM7.85664 38.72H15.84C18.751 38.72 21.12 41.089 21.12 44V45.76H7.04C7.04 43.3382 7.3392 40.9886 7.85664 38.72ZM38.72 63.4058V42.24H42.24V70.4H41.8845C41.3582 67.8145 40.2477 65.4456 38.72 63.4058ZM42.24 38.72V31.68H49.28V66.88H67.0754C66.0422 67.8902 65.1957 69.0817 64.5674 70.4H45.76V38.72H42.24ZM42.24 21.12H49.28V28.16H42.24V21.12ZM56.32 35.2V63.36H52.8V35.2H56.32ZM56.32 17.6V24.64H52.8V17.6H56.32ZM49.28 14.08V17.6H42.24V14.08H49.28ZM38.72 14.08V28.16H12.3974C18.0875 19.6768 27.7605 14.08 38.72 14.08ZM5.28 59.84H7.04V61.6C7.04 62.5715 6.24976 63.36 5.28 63.36H3.52V61.6C3.52 60.6285 4.31024 59.84 5.28 59.84ZM22.88 84.48C18.0277 84.48 14.08 80.5323 14.08 75.68C14.08 70.8277 18.0277 66.88 22.88 66.88C27.7323 66.88 31.68 70.8277 31.68 75.68C31.68 80.5323 27.7323 84.48 22.88 84.48ZM22.88 63.36C16.6866 63.36 11.5597 67.9606 10.7008 73.92H5.28C4.31024 73.92 3.52 73.1315 3.52 72.16V66.88H5.28C8.19104 66.88 10.56 64.511 10.56 61.6V59.84H24.64C32.4034 59.84 38.72 66.1566 38.72 73.92V77.44H35.0592C35.1419 76.8627 35.2 76.2784 35.2 75.68C35.2 68.8882 29.6736 63.36 22.88 63.36ZM42.24 77.44V73.92H63.5008C63.4181 74.4973 63.36 75.0816 63.36 75.68C63.36 76.2784 63.4181 76.8627 63.5008 77.44H42.24ZM66.88 75.68C66.88 70.8277 70.8277 66.88 75.68 66.88C80.5323 66.88 84.48 70.8277 84.48 75.68C84.48 80.5323 80.5323 84.48 75.68 84.48C70.8277 84.48 66.88 80.5323 66.88 75.68ZM84.2846 84.48C85.0397 83.7408 85.6926 82.903 86.24 81.9931C86.7874 82.903 87.4403 83.7425 88.1954 84.48H84.2846Z" fill="black"/>
<path d="M52.7998 84.4801H59.8398V88.0001H52.7998V84.4801Z" fill="black"/>
<mask id="path-6-inside-1" fill="white">
<rect x="59.5508" y="6.70822" width="49.1531" height="56.6511" rx="3"/>
</mask>
<rect x="59.5508" y="6.70822" width="49.1531" height="56.6511" rx="3" stroke="#9E070B" stroke-width="8" mask="url(#path-6-inside-1)"/>
<path d="M67.8818 15.4558C67.8818 14.7656 68.4413 14.2061 69.1315 14.2061C69.8217 14.2061 70.3811 14.7656 70.3811 15.4558V54.6117C70.3811 55.3019 69.8217 55.8614 69.1315 55.8614C68.4413 55.8614 67.8818 55.3019 67.8818 54.6117V15.4558Z" fill="#9E070B"/>
<path d="M75.3799 15.4558C75.3799 14.7656 75.9394 14.2061 76.6295 14.2061C77.3197 14.2061 77.8792 14.7656 77.8792 15.4558V54.6117C77.8792 55.3019 77.3197 55.8614 76.6295 55.8614C75.9394 55.8614 75.3799 55.3019 75.3799 54.6117V15.4558Z" fill="#9E070B"/>
<path d="M82.8779 15.4558C82.8779 14.7656 83.4374 14.2061 84.1276 14.2061C84.8178 14.2061 85.3772 14.7656 85.3772 15.4558V54.6117C85.3772 55.3019 84.8178 55.8614 84.1276 55.8614C83.4374 55.8614 82.8779 55.3019 82.8779 54.6117V15.4558Z" fill="#9E070B"/>
<path d="M90.3755 15.4558C90.3755 14.7656 90.935 14.2061 91.6251 14.2061C92.3153 14.2061 92.8748 14.7656 92.8748 15.4558V54.6117C92.8748 55.3019 92.3153 55.8614 91.6251 55.8614C90.935 55.8614 90.3755 55.3019 90.3755 54.6117V15.4558Z" fill="#9E070B"/>
<path d="M97.8735 15.4558C97.8735 14.7656 98.433 14.2061 99.1232 14.2061C99.8134 14.2061 100.373 14.7656 100.373 15.4558V54.6117C100.373 55.3019 99.8134 55.8614 99.1232 55.8614C98.433 55.8614 97.8735 55.3019 97.8735 54.6117V15.4558Z" fill="#9E070B"/>
</svg>
