<svg width="19" height="14" viewBox="0 0 19 14" fill="none" xmlns="http://www.w3.org/2000/svg">
<path fill-rule="evenodd" clip-rule="evenodd" d="M2 0C0.895431 0 0 0.89543 0 2V12C0 13.1046 0.895429 14 2 14H16.2C17.3046 14 18.2 13.1046 18.2 12V2C18.2 0.895431 17.3046 0 16.2 0H2ZM9.59728 7.60345L15.743 1.4H2.457L8.60272 7.60345C8.87684 7.88013 9.32321 7.88013 9.59728 7.60345ZM1.4 2.32232V11.6101L6.02219 6.98791L1.4 2.32232ZM7.00751 7.98247L2.38994 12.6H15.8101L11.1925 7.98247L10.5919 8.58877C9.76953 9.41883 8.43061 9.41892 7.60816 8.58877L7.00751 7.98247ZM12.1778 6.98791L16.8 11.6101V2.32232L12.1778 6.98791Z" fill="white"/>
</svg>
