<svg width="41" height="40" viewBox="0 0 41 40" fill="none" xmlns="http://www.w3.org/2000/svg">
<path d="M4.96119 0C1.96135 0 0 1.96984 0 4.55893C0 7.09083 1.90292 9.11686 4.84608 9.11686H4.90301C7.96152 9.11686 9.86494 7.09083 9.86494 4.55893C9.80776 1.96984 7.96152 0 4.96119 0Z" fill="#9E070B"/>
<path d="M0.518555 12.7191H9.28834V39.1034H0.518555V12.7191Z" fill="#9E070B"/>
<path d="M30.814 12.0997C26.083 12.0997 22.9107 16.5453 22.9107 16.5453V12.719H14.1406V39.1032H22.9102V24.3692C22.9102 23.5805 22.9673 22.7929 23.1991 22.2289C23.833 20.6538 25.2758 19.022 27.6986 19.022C30.8719 19.022 32.1411 21.4416 32.1411 24.9885V39.1032H40.9102V23.975C40.9102 15.8709 36.5834 12.0997 30.814 12.0997Z" fill="#9E070B"/>
</svg>
