<svg width="41" height="41" viewBox="0 0 41 41" fill="none" xmlns="http://www.w3.org/2000/svg">
<path d="M38.6518 4.62755e-08H2.25624C1.01002 0.000749134 -0.000249649 1.01151 4.62755e-08 2.25824V38.6538C0.000749134 39.9 1.01151 40.9103 2.25824 40.91H21.8533V25.0893H16.5398V18.8969H21.8533V14.3397C21.8533 9.05493 25.0796 6.17845 29.7938 6.17845C32.0518 6.17845 33.9922 6.34674 34.5578 6.4219V11.9454H31.307C28.7421 11.9454 28.2455 13.1642 28.2455 14.953V18.8969H34.378L33.579 25.0893H28.2455V40.91H38.6518C39.8987 40.9103 40.9098 39.8997 40.91 38.6528C40.91 38.6525 40.91 38.6523 40.91 38.6518V2.25624C40.9095 1.01002 39.8985 -0.000249649 38.6518 4.62755e-08Z" fill="#9E070B"/>
</svg>
