<svg width="86" height="88" viewBox="0 0 86 88" fill="none" xmlns="http://www.w3.org/2000/svg">
<path d="M83.5999 7.33333H77.7332C77.7332 6.94435 77.5787 6.5713 77.3037 6.29624C77.0286 6.02119 76.6555 5.86667 76.2666 5.86667H73.3332V2.93333H70.3999V5.86667H67.4666V0H64.5332V5.86667H61.5999C61.2109 5.86667 60.8379 6.02119 60.5628 6.29624C60.2878 6.5713 60.1332 6.94435 60.1332 7.33333V10.2667H19.0666V7.33333H16.1332V10.2667H13.1999V4.4H10.2666V10.2667H5.86657C5.47758 10.2667 5.10453 10.4212 4.82948 10.6962C4.55443 10.9713 4.3999 11.3443 4.3999 11.7333V17.6C4.3999 17.989 4.55443 18.362 4.82948 18.6371C5.10453 18.9121 5.47758 19.0667 5.86657 19.0667H10.2666V38.3189C9.20418 38.5932 8.24001 39.1599 7.48357 39.9547C6.72713 40.7495 6.20875 41.7406 5.9873 42.8152C5.76585 43.8899 5.85021 45.0051 6.2308 46.0342C6.61139 47.0633 7.27296 47.965 8.14035 48.637C9.00775 49.309 10.0462 49.7242 11.1378 49.8356C12.2293 49.947 13.3303 49.75 14.3155 49.267C15.3007 48.7841 16.1308 48.0345 16.7113 47.1035C17.2919 46.1724 17.5998 45.0972 17.5999 44H14.6666C14.6666 44.5802 14.4945 45.1473 14.1722 45.6297C13.8499 46.1121 13.3918 46.488 12.8558 46.71C12.3198 46.9321 11.73 46.9902 11.161 46.877C10.592 46.7638 10.0693 46.4844 9.65906 46.0742C9.24882 45.6639 8.96945 45.1413 8.85627 44.5723C8.74308 44.0033 8.80117 43.4135 9.02319 42.8775C9.24521 42.3415 9.62118 41.8833 10.1036 41.561C10.5859 41.2387 11.1531 41.0667 11.7332 41.0667C12.1222 41.0667 12.4953 40.9121 12.7703 40.6371C13.0454 40.362 13.1999 39.989 13.1999 39.6V19.0667H60.1332V22C60.1332 22.389 60.2878 22.762 60.5628 23.0371C60.8379 23.3121 61.2109 23.4667 61.5999 23.4667H63.0666V79.2H55.7332C55.3442 79.2 54.9712 79.3545 54.6961 79.6296C54.4211 79.9046 54.2666 80.2777 54.2666 80.6667V86.5333C54.2666 86.9223 54.4211 87.2954 54.6961 87.5704C54.9712 87.8455 55.3442 88 55.7332 88H82.1332C82.5222 88 82.8953 87.8455 83.1703 87.5704C83.4454 87.2954 83.5999 86.9223 83.5999 86.5333V80.6667C83.5999 80.2777 83.4454 79.9046 83.1703 79.6296C82.8953 79.3545 82.5222 79.2 82.1332 79.2H74.7999V23.4667H76.2666C76.6555 23.4667 77.0286 23.3121 77.3037 23.0371C77.5787 22.762 77.7332 22.389 77.7332 22V21.5263L84.1446 18.9618C84.4168 18.8529 84.6501 18.665 84.8144 18.4223C84.9787 18.1795 85.0666 17.8931 85.0666 17.6V8.8C85.0666 8.41102 84.912 8.03796 84.637 7.76291C84.3619 7.48786 83.9889 7.33333 83.5999 7.33333ZM31.4075 13.2H38.9923L41.9257 16.1333H34.3408L31.4075 13.2ZM30.1923 16.1333H22.6075L19.6741 13.2H27.259L30.1923 16.1333ZM43.1408 13.2H50.7257L53.659 16.1333H46.0741L43.1408 13.2ZM7.33324 16.1333V13.2H10.2666V16.1333H7.33324ZM13.1999 13.2H15.5257L18.459 16.1333H13.1999V13.2ZM57.8075 16.1333L54.8741 13.2H60.1332V16.1333H57.8075ZM65.9999 47.7924V40.2076L71.8666 46.0742V53.6591L65.9999 47.7924ZM71.8666 57.8076V65.3924L65.9999 59.5258V51.9409L71.8666 57.8076ZM65.9999 63.6742L71.8666 69.5409V77.1258L65.9999 71.2591V63.6742ZM71.8666 41.9258L65.9999 36.0591V28.4742L71.8666 34.3409V41.9258ZM65.9999 75.4076L69.7923 79.2H65.9999V75.4076ZM80.6666 85.0667H57.1999V82.1333H80.6666V85.0667ZM71.8666 30.1924L65.9999 24.3258V23.4667H71.8666V30.1924ZM74.7999 20.5333H63.0666V8.8H74.7999V20.5333ZM82.1332 16.6069L77.7332 18.3669V10.2667H82.1332V16.6069Z" fill="#111111"/>
<path d="M4.96777 75.2258H6.47939V83.7419H4.96777V75.2258Z" fill="#9E070B"/>
<path d="M8.6084 75.2258H10.12V83.7419H8.6084V75.2258Z" fill="#9E070B"/>
<path d="M12.249 75.2258H13.7606V83.7419H12.249V75.2258Z" fill="#9E070B"/>
<path d="M15.8896 75.2258H17.4013V83.7419H15.8896V75.2258Z" fill="#9E070B"/>
<path d="M19.5303 75.2258H21.0419V83.7419H19.5303V75.2258Z" fill="#9E070B"/>
<path fill-rule="evenodd" clip-rule="evenodd" d="M53.9355 72.795V56.2717C53.9047 56.234 53.8718 56.1977 53.8371 56.1629C53.562 55.8879 53.189 55.7333 52.8 55.7333H48.4V42.5333C48.4 42.1444 48.2455 41.7713 47.9704 41.4962C47.8218 41.3476 47.6445 41.2342 47.4516 41.1613H22.9484C22.7555 41.2342 22.5782 41.3476 22.4296 41.4962C22.1545 41.7713 22 42.1444 22 42.5333V55.7333H5.86667C5.47768 55.7333 5.10463 55.8879 4.82958 56.1629C4.55452 56.438 4.4 56.811 4.4 57.2V70.4H1.46667C1.07768 70.4 0.70463 70.5545 0.429577 70.8296C0.154523 71.1046 0 71.4777 0 71.8667V86.5333C0 86.9223 0.154523 87.2954 0.429577 87.5704C0.703841 87.8447 1.07554 87.9991 1.46332 88C1.46443 88 1.46555 88 1.46667 88H48.4C48.4011 88 48.4022 88 48.4034 88C48.7911 87.9991 49.1628 87.8447 49.4371 87.5704C49.7121 87.2954 49.8667 86.9223 49.8667 86.5333V73.3333H52.8C53.189 73.3333 53.562 73.1788 53.8371 72.9038C53.8718 72.869 53.9047 72.8327 53.9355 72.795ZM45.4667 44H24.9333V55.7333H45.4667V44ZM27.8667 58.6667H7.33333V70.4H27.8667V58.6667ZM23.4667 73.3333H2.93333V85.0667H23.4667V73.3333ZM26.4 85.0667H46.9333V73.3333H26.4V85.0667ZM30.8 70.4H51.3333V58.6667H30.8V70.4Z" fill="#9E070B"/>
<path d="M33.355 60.3226H34.8666V68.8387H33.355V60.3226Z" fill="#9E070B"/>
<path d="M36.9956 60.3226H38.5072V68.8387H36.9956V60.3226Z" fill="#9E070B"/>
<path d="M40.6362 60.3226H42.1478V68.8387H40.6362V60.3226Z" fill="#9E070B"/>
<path d="M44.2769 60.3226H45.7885V68.8387H44.2769V60.3226Z" fill="#9E070B"/>
<path d="M47.9175 60.3226H49.4291V68.8387H47.9175V60.3226Z" fill="#9E070B"/>
<path d="M9.93555 60.3226H11.4472V68.8387H9.93555V60.3226Z" fill="#9E070B"/>
<path d="M13.5762 60.3226H15.0878V68.8387H13.5762V60.3226Z" fill="#9E070B"/>
<path d="M17.2168 60.3226H18.7284V68.8387H17.2168V60.3226Z" fill="#9E070B"/>
<path d="M20.8574 60.3226H22.369V68.8387H20.8574V60.3226Z" fill="#9E070B"/>
<path d="M24.498 60.3226H26.0097V68.8387H24.498V60.3226Z" fill="#9E070B"/>
<path d="M26.9678 45.4194H28.4794V53.9355H26.9678V45.4194Z" fill="#9E070B"/>
<path d="M30.6084 45.4194H32.12V53.9355H30.6084V45.4194Z" fill="#9E070B"/>
<path d="M34.249 45.4194H35.7606V53.9355H34.249V45.4194Z" fill="#9E070B"/>
<path d="M37.8896 45.4194H39.4013V53.9355H37.8896V45.4194Z" fill="#9E070B"/>
<path d="M41.5303 45.4194H43.0419V53.9355H41.5303V45.4194Z" fill="#9E070B"/>
<path d="M28.3872 75.2258H29.8988V83.7419H28.3872V75.2258Z" fill="#9E070B"/>
<path d="M32.0278 75.2258H33.5394V83.7419H32.0278V75.2258Z" fill="#9E070B"/>
<path d="M35.6685 75.2258H37.1801V83.7419H35.6685V75.2258Z" fill="#9E070B"/>
<path d="M39.3091 75.2258H40.8207V83.7419H39.3091V75.2258Z" fill="#9E070B"/>
<path d="M42.9497 75.2258H44.4613V83.7419H42.9497V75.2258Z" fill="#9E070B"/>
</svg>
