<svg width="115" height="90" viewBox="0 0 115 90" fill="none" xmlns="http://www.w3.org/2000/svg">
<path d="M58.6417 6.35437L58.5783 6.27708L58.6418 6.35435C60.6189 4.73047 62.7592 3.67812 65.368 3.67812C70.7619 3.67812 75.1505 8.06653 75.1505 13.4606C75.1505 15.5822 74.4839 17.598 73.2222 19.2931L73.2199 19.2959L73.208 19.3102L73.161 19.3666L72.9777 19.5871L72.2804 20.4255L69.7796 23.4323C67.7032 25.9288 64.9184 29.2772 62.0846 32.6847C56.7855 39.0566 51.3151 45.6354 49.9861 47.2366C50.0496 46.6429 50.0821 46.04 50.0821 45.4299C50.0821 36.1348 42.5202 28.5727 33.2252 28.5727C32.6303 28.5727 32.0426 28.6041 31.4636 28.6646L58.6417 6.35437ZM85.1052 37.5555L85.194 37.6015L85.1052 37.5555C84.9008 37.9507 84.8982 38.3327 85.0284 38.6566C85.1576 38.9779 85.4145 39.2354 85.7189 39.3928C86.0234 39.5503 86.382 39.6111 86.7188 39.5308C87.0583 39.4498 87.3685 39.227 87.5729 38.8318C89.1878 35.7093 89.4856 31.9911 88.3904 28.6296C86.6823 23.3863 81.4137 20.0201 75.9574 20.2144C77.2484 18.1989 77.9285 15.883 77.9285 13.4604C77.9285 6.53449 72.294 0.9 65.368 0.9C62.1929 0.9 59.1645 2.08661 56.8366 4.24194L22.2976 32.5944C22.2518 32.6319 22.2108 32.6719 22.173 32.7117C18.6188 35.8042 16.3679 40.359 16.3679 45.4299C16.3679 46.9478 16.5707 48.4192 16.9488 49.8193L16.8823 49.8818L16.5687 50.1769C16.2975 50.4322 15.9077 50.7994 15.4331 51.2469C14.4841 52.1418 13.1962 53.3579 11.8409 54.6426C9.13132 57.2111 6.15015 60.056 5.07152 61.1544C2.71296 63.5562 0.9 68.005 0.9 72.2429C0.9 81.5381 8.4619 89.1 17.7571 89.1C24.6736 89.1 30.6293 84.9129 33.2252 78.9413C35.8209 84.9129 41.7766 89.1 48.6929 89.1C55.3839 89.1 61.1763 85.1814 63.8969 79.5193L83.6564 45.5711C83.8802 45.1866 83.9018 44.8052 83.7879 44.4752C83.6749 44.1478 83.4311 43.8779 83.1349 43.7054C82.8387 43.533 82.4836 43.4543 82.1431 43.5178C81.8 43.5818 81.4791 43.789 81.2553 44.1735L65.5176 71.2124C64.9831 62.3954 57.6421 55.3859 48.6929 55.3859C48.0413 55.3859 47.3981 55.4235 46.7655 55.4959L46.8589 55.3844L47.5869 54.5156C48.2161 53.7647 49.1196 52.6863 50.2164 51.3767C52.4101 48.7574 55.3776 45.2128 58.4725 41.5117C64.6473 34.1274 71.3304 26.1191 73.3871 23.5947C75.7337 22.5076 78.4357 22.8034 80.7492 23.9623C83.0699 25.1247 84.9861 27.1493 85.7488 29.4902C86.6152 32.1498 86.3805 35.0899 85.1052 37.5555ZM33.225 31.3509C40.988 31.3509 47.3038 37.6667 47.3038 45.4299C47.3038 53.0539 40.8548 59.5087 33.225 59.5087C25.462 59.5087 19.146 53.1929 19.146 45.4299C19.1462 37.6668 25.462 31.3509 33.225 31.3509ZM33.225 62.2868C33.8873 62.2868 34.5408 62.248 35.1834 62.1733C34.4074 63.2116 33.748 64.3417 33.225 65.5447C32.702 64.3417 32.0426 63.2116 31.2666 62.1732C31.9093 62.248 32.5627 62.2868 33.225 62.2868ZM14.8677 55.635L17.9981 52.6563C18.4778 53.663 19.0541 54.6146 19.7155 55.4995C19.0728 55.4248 18.4194 55.3859 17.7571 55.3859C16.7722 55.3859 15.8069 55.4718 14.8677 55.635ZM17.7571 86.3219C9.9941 86.3219 3.67812 80.0061 3.67812 72.2429C3.67812 68.6468 5.03505 65.3629 7.26178 62.8717C10.0147 59.9646 13.7073 58.164 17.7571 58.164C25.5201 58.164 31.8361 64.4799 31.8361 72.243C31.8361 80.0062 25.5201 86.3219 17.7571 86.3219ZM62.7719 72.2429C62.7719 80.0059 56.4561 86.3219 48.6929 86.3219C40.9299 86.3219 34.6141 80.0061 34.6141 72.2429C34.6141 64.4797 40.9299 58.1639 48.6929 58.1639C56.4561 58.164 62.7719 64.4799 62.7719 72.2429Z" fill="#111111" stroke="#111111" stroke-width="0.2"/>
<path d="M33.2252 57.8899C40.0957 57.8899 45.6855 52.3004 45.6855 45.4297C45.6855 38.559 40.0959 32.9694 33.2252 32.9694C30.8401 32.9694 28.5177 33.6516 26.509 34.9421C25.1067 35.8429 26.5003 38.0119 27.9024 37.1111C29.4947 36.0883 31.3353 35.5476 33.2252 35.5476C38.6742 35.5476 43.1073 39.9806 43.1073 45.4297C43.1073 50.8788 38.6743 55.3118 33.2252 55.3118C27.7761 55.3118 23.3433 50.8788 23.3433 45.4297C23.3433 44.1721 23.5803 42.9418 24.0478 41.7734C24.6669 40.226 22.2732 39.2683 21.6541 40.8159C21.0642 42.2904 20.7651 43.8428 20.7651 45.4299C20.7651 52.3004 26.3547 57.8899 33.2252 57.8899Z" fill="black"/>
<path d="M17.757 59.7828C10.8864 59.7828 5.29688 65.3723 5.29688 72.243C5.29688 79.1137 10.8864 84.7031 17.757 84.7031C24.6275 84.7031 30.2172 79.1136 30.2172 72.2429C30.2172 65.3722 24.6275 59.7828 17.757 59.7828ZM17.757 82.125C12.308 82.125 7.875 77.692 7.875 72.2429C7.875 66.7937 12.308 62.3607 17.757 62.3607C23.2059 62.3607 27.6391 66.7937 27.6391 72.2429C27.6391 77.692 23.2059 82.125 17.757 82.125Z" fill="black"/>
<path d="M48.6932 84.7031C55.5637 84.7031 61.1532 79.1136 61.1532 72.2429C61.1532 65.3722 55.5637 59.7826 48.6932 59.7826C41.8226 59.7826 36.2329 65.3722 36.2329 72.2429C36.2329 79.1136 41.8226 84.7031 48.6932 84.7031ZM48.6932 62.3609C54.1421 62.3609 58.5751 66.7939 58.5751 72.2431C58.5751 77.6922 54.1421 82.125 48.6932 82.125C43.2442 82.125 38.811 77.692 38.811 72.2429C38.811 66.7938 43.2442 62.3609 48.6932 62.3609Z" fill="black"/>
<path d="M113.85 78.6337L95.4714 46.8004C94.7846 45.6107 93.5534 44.9 92.1796 44.9C90.8059 44.9 89.5747 45.6108 88.8878 46.8004L88.9744 46.8504L88.8878 46.8004L70.5089 78.6337C69.822 79.8234 69.822 81.2451 70.5089 82.4347C71.1958 83.6245 72.4271 84.3352 73.8007 84.3352H110.559C111.932 84.3352 113.164 83.6244 113.85 82.4347C114.537 81.2451 114.537 79.8234 113.85 78.6337ZM112.557 81.6878C112.139 82.4105 111.393 82.8413 110.559 82.8413H73.8007C72.9662 82.8413 72.22 82.4105 71.8027 81.6878C71.3855 80.9652 71.3855 80.1034 71.8027 79.3808L90.1818 47.5475C90.5989 46.8248 91.3453 46.394 92.1797 46.394C93.0142 46.394 93.7604 46.8248 94.1777 47.5475L112.557 79.3808C112.974 80.1034 112.974 80.9651 112.557 81.6878Z" fill="#9E070B" stroke="#9E070B" stroke-width="0.2"/>
<path d="M95.5623 53.4455C95.3406 53.0608 94.8495 52.929 94.4655 53.1512C94.0815 53.3733 93.9501 53.865 94.1717 54.2494C94.1717 54.2494 94.1717 54.2494 94.1717 54.2494L108.377 78.8974H97.1218C96.6783 78.8974 96.319 79.2576 96.319 79.7015C96.319 80.1454 96.6783 80.5056 97.1218 80.5056H109.767C110.054 80.5056 110.319 80.3522 110.462 80.1035C110.606 79.8548 110.606 79.5482 110.462 79.2995L95.5623 53.4455Z" fill="#9E070B" stroke="#9E070B" stroke-width="0.2"/>
<path d="M92.945 49.1219L92.945 49.1219C92.8049 48.8793 92.5461 48.7296 92.2658 48.7296C91.9855 48.7296 91.7266 48.8792 91.5865 49.122L74.1535 79.3287C74.1535 79.3287 74.1535 79.3287 74.1535 79.3287C74.0134 79.5714 74.0134 79.8706 74.1535 80.1133C74.2936 80.3559 74.5525 80.5056 74.8328 80.5056H87.146C87.5792 80.5056 87.9303 80.1542 87.9303 79.721C87.9303 79.2877 87.5792 78.9364 87.146 78.9364H76.1912L92.2658 51.0835L92.9727 52.3084C93.1892 52.6836 93.6689 52.8122 94.0441 52.5956C94.4192 52.3789 94.5477 51.899 94.3312 51.5238L92.945 49.1219Z" fill="#9E070B" stroke="#9E070B" stroke-width="0.2"/>
<path d="M92.1796 75.2345C90.6236 75.2345 89.358 76.5002 89.358 78.056C89.358 79.612 90.6236 80.8777 92.1796 80.8777C93.7355 80.8777 95.0012 79.612 95.0012 78.056C95.0012 76.5002 93.7355 75.2345 92.1796 75.2345ZM92.1796 79.3837C91.4476 79.3837 90.852 78.788 90.852 78.056C90.852 77.3241 91.4476 76.7285 92.1796 76.7285C92.9116 76.7285 93.5071 77.3241 93.5071 78.056C93.5071 78.788 92.9115 79.3837 92.1796 79.3837Z" fill="#9E070B" stroke="#9E070B" stroke-width="0.2"/>
<path d="M89.7906 59.7775L89.7906 59.7775C90.061 59.4925 90.4412 59.3292 90.8341 59.3292H93.5255C93.9185 59.3292 94.2986 59.4924 94.5691 59.7775L94.5691 59.7775C94.8395 60.0626 94.9828 60.4509 94.9621 60.8433M89.7906 59.7775L94.8622 60.838M89.7906 59.7775C89.5201 60.0626 89.377 60.4508 89.3976 60.8433L89.3976 60.8433M89.7906 59.7775L89.3976 60.8433M94.9621 60.8433L94.8622 60.838M94.9621 60.8433V60.8433L94.8622 60.838M94.9621 60.8433L94.3434 72.5993C94.3032 73.3636 93.6721 73.9623 92.9068 73.9623H91.4529C90.6875 73.9623 90.0565 73.3636 90.0163 72.5993L90.1161 72.5941M94.8622 60.838L94.2435 72.5941C94.2061 73.3052 93.619 73.8623 92.9068 73.8623H91.4529C90.7407 73.8623 90.1536 73.3052 90.1161 72.5941M90.1161 72.5941L90.0163 72.5993L89.3976 60.8433M90.1161 72.5941L89.3976 60.8433M93.4701 60.7649C93.4701 60.7647 93.4701 60.7646 93.4701 60.7646L93.4701 60.7648L93.4701 60.7649ZM93.4701 60.7649C93.47 60.7665 93.4699 60.7729 93.4717 60.7804C93.474 60.7899 93.4787 60.799 93.4853 60.806L93.5254 60.7678L93.4853 60.806C93.492 60.813 93.5008 60.8181 93.51 60.8208C93.5174 60.823 93.5237 60.8232 93.5251 60.8232M93.4701 60.7649L93.467 60.8232M93.467 60.8232H90.8925M93.467 60.8232L92.8541 72.4683H91.5053L90.8925 60.8232M90.8925 60.8232L90.8894 60.765M90.8925 60.8232H90.8344M90.8894 60.765L90.8894 60.7648L90.8894 60.7646C90.8894 60.7646 90.8894 60.7647 90.8894 60.765ZM90.8894 60.765C90.8895 60.7665 90.8896 60.7729 90.8878 60.7804C90.8855 60.7899 90.8808 60.799 90.8742 60.806C90.8675 60.813 90.8587 60.8181 90.8495 60.8208C90.8421 60.823 90.8358 60.8232 90.8344 60.8232M90.8344 60.8232H90.8341C90.834 60.8232 90.8341 60.8232 90.8344 60.8232Z" fill="#9E070B" stroke="#9E070B" stroke-width="0.2"/>
</svg>
