<svg width="190" height="36" viewBox="0 0 190 36" fill="none" xmlns="http://www.w3.org/2000/svg">
<path fill-rule="evenodd" clip-rule="evenodd" d="M106.4 1.59998H189.6V33.6H106.4V1.59998ZM109.28 7.99998H113.88V32H118.28V7.99998H122.88V3.99998H109.28V7.99998ZM131.53 3.99998H125.01V32H129.41V20H130.93C131.944 20 132.65 20.2533 133.05 20.76C133.477 21.2666 133.69 22.16 133.69 23.44V28.56C133.69 29.6 133.717 30.32 133.77 30.72C133.824 31.12 133.93 31.5466 134.09 32H138.57C138.357 31.52 138.224 31.04 138.17 30.56C138.117 30.0533 138.09 29.4 138.09 28.6V23.68C138.09 22.0266 137.864 20.7066 137.41 19.72C136.984 18.7333 136.237 18.08 135.17 17.76V17.68C137.09 16.9066 138.05 15.0666 138.05 12.16V10.44C138.05 8.25333 137.53 6.63998 136.49 5.59998C135.45 4.53334 133.797 3.99998 131.53 3.99998ZM132.97 15.32C132.544 15.7733 131.89 16 131.01 16H129.41V7.99998H131.41C132.184 7.99998 132.744 8.22662 133.09 8.67998C133.464 9.13334 133.65 9.86662 133.65 10.88V13.04C133.65 14.1066 133.424 14.8666 132.97 15.32ZM150.503 3.99998H144.543L139.983 32H144.063L144.863 26.52H149.863V26.44L150.663 32H155.063L150.503 3.99998ZM147.383 8.87998L149.343 22.72H145.383L147.303 8.87998H147.383ZM158.48 30.6C159.6 31.8 161.213 32.4 163.32 32.4C165.426 32.4 167.026 31.8 168.12 30.6C169.24 29.4 169.8 27.7066 169.8 25.52V21.56H165.64V25.84C165.64 27.5466 164.906 28.4 163.44 28.4C161.973 28.4 161.24 27.5466 161.24 25.84V10.2C161.24 8.46662 161.973 7.59998 163.44 7.59998C164.906 7.59998 165.64 8.46662 165.64 10.2V13.44H169.8V10.48C169.8 8.29334 169.24 6.59998 168.12 5.39998C167.026 4.19998 165.426 3.59998 163.32 3.59998C161.213 3.59998 159.6 4.19998 158.48 5.39998C157.386 6.59998 156.84 8.29334 156.84 10.48V25.52C156.84 27.7066 157.386 29.4 158.48 30.6ZM176.832 3.99998H172.432V32H176.832V23.08L178.592 19.52L182.312 32H186.912L181.592 14.28L186.832 3.99998H182.432L176.832 15.8V3.99998Z" fill="black"/>
<path d="M0.840088 3.99998H7.12009L9.92009 24.04H10.0001L12.8001 3.99998H19.0801V32H14.9201V10.8H14.8401L11.6401 32H7.96009L4.76009 10.8H4.68009V32H0.840088V3.99998ZM28.7235 32.4C26.5635 32.4 24.9102 31.7866 23.7635 30.56C22.6169 29.3333 22.0435 27.6 22.0435 25.36V10.64C22.0435 8.39997 22.6169 6.66662 23.7635 5.43998C24.9102 4.21334 26.5635 3.59998 28.7235 3.59998C30.8835 3.59998 32.5369 4.21334 33.6835 5.43998C34.8302 6.66662 35.4035 8.39997 35.4035 10.64V25.36C35.4035 27.6 34.8302 29.3333 33.6835 30.56C32.5369 31.7866 30.8835 32.4 28.7235 32.4ZM28.7235 28.4C30.2435 28.4 31.0035 27.48 31.0035 25.64V10.36C31.0035 8.51998 30.2435 7.59998 28.7235 7.59998C27.2035 7.59998 26.4435 8.51998 26.4435 10.36V25.64C26.4435 27.48 27.2035 28.4 28.7235 28.4ZM38.3791 3.99998H45.0991C47.2858 3.99998 48.9258 4.58662 50.0191 5.75998C51.1125 6.93334 51.6591 8.65333 51.6591 10.92V25.08C51.6591 27.3466 51.1125 29.0666 50.0191 30.24C48.9258 31.4133 47.2858 32 45.0991 32H38.3791V3.99998ZM45.0191 28C45.7391 28 46.2858 27.7866 46.6591 27.36C47.0591 26.9333 47.2591 26.24 47.2591 25.28V10.72C47.2591 9.75997 47.0591 9.06661 46.6591 8.63997C46.2858 8.21333 45.7391 7.99998 45.0191 7.99998H42.7791V28H45.0191ZM57.951 3.99998H63.911L68.471 32H64.071L63.271 26.44V26.52H58.271L57.471 32H53.391L57.951 3.99998ZM62.751 22.72L60.791 8.87998H60.711L58.791 22.72H62.751ZM70.6057 3.99998H75.0057V28H82.2457V32H70.6057V3.99998Z" fill="black"/>
<path d="M189.6 33.6H0V36H189.6V33.6Z" fill="black"/>
<path d="M102.4 34.8H99.4V22.8H100.6C100.96 22.8 101.2 22.5601 101.2 22.2001V10.2C101.2 9.84 100.96 9.60008 100.6 9.60008H100.18L98.74 6.90008C98.62 6.72008 98.44 6.6 98.2 6.6H97.6V5.4C97.6 5.04 97.36 4.8 97 4.8H96.7L94.6 2.16V0.599976C94.6 0.239976 94.36 0 94 0C93.64 0 93.4 0.239976 93.4 0.599976V2.16L91.3 4.8H91C90.64 4.8 90.4 5.04 90.4 5.4V6.6H89.8C89.56 6.6 89.38 6.72008 89.26 6.90008L87.82 9.60008H87.4C87.04 9.60008 86.8 9.84 86.8 10.2V22.2001C86.8 22.5601 87.04 22.8 87.4 22.8H88.6V34.8001H85.6C85.24 34.8001 85 35.04 85 35.4C85 35.76 85.24 36 85.6 36H87.4H100.6H102.4C102.76 36 103 35.76 103 35.4C103 35.04 102.76 34.8 102.4 34.8ZM92.2 33C92.2 33.36 91.96 33.5999 91.6 33.5999C91.24 33.5999 91 33.36 91 33V24.6C91 24.24 91.24 24.0001 91.6 24.0001C91.96 24.0001 92.2 24.24 92.2 24.6V33ZM94.6 33C94.6 33.36 94.36 33.5999 94 33.5999C93.64 33.5999 93.4 33.36 93.4 33V24.6C93.4 24.24 93.64 24.0001 94 24.0001C94.36 24.0001 94.6 24.24 94.6 24.6V33ZM97 33C97 33.36 96.76 33.5999 96.4 33.5999C96.04 33.5999 95.8 33.36 95.8 33V24.6C95.8 24.24 96.04 24.0001 96.4 24.0001C96.76 24.0001 97 24.24 97 24.6V33ZM94 20.4C91.66 20.4 89.8 18.54 89.8 16.2C89.8 13.86 91.66 12 94 12C96.34 12 98.2 13.86 98.2 16.2C98.2 18.54 96.34 20.4 94 20.4Z" fill="black"/>
<path d="M95.1999 15.6H94.5999V14.4C94.5999 14.04 94.3599 13.8 93.9999 13.8C93.6399 13.8 93.3999 14.04 93.3999 14.4V16.2C93.3999 16.56 93.6399 16.7999 93.9999 16.7999H95.1999C95.5599 16.7999 95.7999 16.56 95.7999 16.2C95.7999 15.84 95.5599 15.6 95.1999 15.6Z" fill="black"/>
</svg>
